<?xml version="1.0" standalone="no"?>
<!DOCTYPE svg PUBLIC "-//W3C//DTD SVG 20010904//EN"
 "http://www.w3.org/TR/2001/REC-SVG-20010904/DTD/svg10.dtd">
<svg version="1.0" xmlns="http://www.w3.org/2000/svg"
 width="797.000000pt" height="225.000000pt" viewBox="0 0 797.000000 225.000000"
 preserveAspectRatio="xMidYMid meet">

<g transform="translate(0.000000,225.000000) scale(0.100000,-0.100000)"
fill="#000000" stroke="none">
<path d="M2400 1100 l0 -1030 25 0 25 0 0 1030 0 1030 -25 0 -25 0 0 -1030z"/>
<path d="M268 1789 c-57 -22 -58 -27 -58 -598 l0 -521 830 0 831 0 -3 528 c-3
484 -4 529 -21 553 -9 14 -29 31 -43 37 -32 15 -1495 15 -1536 1z m1487 -549
l0 -455 -720 0 -720 0 -3 445 c-1 245 0 451 3 458 3 10 153 12 722 10 l718 -3
0 -455z"/>
<path d="M1095 1558 c-26 -77 -195 -637 -195 -646 0 -19 58 -15 68 6 9 17 202
635 202 646 0 12 -71 6 -75 -6z"/>
<path d="M688 1368 c-116 -70 -118 -72 -118 -108 0 -23 7 -43 18 -52 26 -22
219 -138 230 -138 13 0 22 49 13 73 -4 11 -40 38 -81 61 -40 22 -75 46 -77 51
-1 6 25 25 60 44 34 18 70 41 80 49 20 18 24 92 5 92 -7 0 -66 -32 -130 -72z"/>
<path d="M1244 1426 c-3 -8 -4 -27 -2 -43 2 -23 16 -36 81 -74 42 -25 80 -49
83 -52 3 -3 -25 -22 -63 -43 -37 -20 -76 -44 -85 -52 -22 -18 -24 -80 -4 -88
7 -3 67 28 132 68 l119 74 0 39 c0 39 0 39 -115 111 -121 76 -137 83 -146 60z"/>
<path d="M3640 1591 c-46 -13 -52 -40 -45 -221 4 -91 5 -163 2 -160 -3 3 -41
88 -85 190 l-81 185 -65 3 -66 3 0 -256 0 -255 51 0 52 0 -5 189 c-2 105 -1
188 4 185 4 -3 8 -9 8 -14 0 -12 140 -332 153 -347 11 -14 104 -17 125 -5 9 7
12 65 10 258 -3 270 -1 261 -58 245z"/>
<path d="M4993 1588 l-32 -8 75 -170 c72 -165 74 -173 74 -251 l0 -80 53 3 52
3 5 90 c5 83 11 101 73 245 37 85 67 159 67 163 0 4 -23 7 -51 5 l-51 -3 -39
-95 c-21 -52 -38 -103 -38 -112 -2 -41 -21 -23 -42 39 -53 162 -76 189 -146
171z"/>
<path d="M5933 1589 c-44 -13 -47 -29 -41 -220 3 -88 1 -156 -3 -152 -4 4 -42
90 -85 191 l-78 182 -68 0 -68 0 2 -252 3 -253 50 0 50 0 -2 190 c-1 125 1
183 7 170 6 -11 43 -96 84 -190 l74 -170 43 -3 c23 -2 53 -1 66 3 l23 5 0 255
c0 198 -3 255 -12 254 -7 0 -28 -5 -45 -10z"/>
<path d="M6214 1581 c-90 -41 -131 -133 -122 -279 8 -144 82 -223 207 -223
152 -1 228 97 219 280 -5 92 -25 146 -70 188 -57 53 -159 68 -234 34z m124
-72 c47 -16 66 -66 66 -174 0 -127 -28 -175 -103 -175 -70 0 -111 94 -96 223
8 77 23 107 60 123 37 16 36 16 73 3z"/>
<path d="M6680 1578 c-56 -29 -90 -78 -90 -131 0 -60 36 -99 128 -143 42 -20
85 -43 95 -52 22 -19 22 -55 0 -73 -23 -20 -102 -15 -157 10 l-47 20 -19 -32
c-11 -18 -20 -35 -20 -39 0 -11 69 -44 108 -53 48 -10 128 -8 167 5 39 13 92
68 101 105 19 77 -36 152 -145 195 -94 38 -120 69 -85 104 20 20 93 21 141 1
48 -20 48 -20 68 21 20 43 17 46 -59 69 -71 22 -134 19 -186 -7z"/>
<path d="M7134 1581 c-82 -37 -126 -120 -126 -241 0 -168 74 -261 210 -261
153 -1 230 99 220 285 -5 87 -26 142 -70 183 -57 53 -159 68 -234 34z m124
-72 c46 -16 65 -64 65 -173 1 -128 -27 -176 -101 -176 -71 0 -111 87 -99 216
8 78 24 114 62 130 37 16 36 16 73 3z"/>
<path d="M7515 1593 c-11 -3 -23 -8 -27 -12 -4 -4 21 -110 56 -236 49 -176 69
-233 86 -247 26 -21 122 -25 138 -5 8 10 142 474 142 492 0 3 -23 5 -52 3
l-52 -3 -43 -180 c-24 -99 -45 -190 -48 -202 -9 -37 -22 -26 -30 22 -11 74
-85 339 -98 351 -16 15 -47 23 -72 17z"/>
<path d="M2851 1344 c-61 -187 -78 -250 -68 -256 6 -4 29 -8 49 -8 36 0 37 1
54 55 l18 55 87 0 87 0 12 -37 c17 -53 38 -73 74 -73 64 0 64 -1 -21 261 l-79
244 -66 3 -67 3 -80 -247z m172 47 c15 -55 27 -102 27 -105 0 -3 -27 -6 -61
-6 -54 0 -60 2 -54 18 3 9 16 56 28 104 12 48 25 88 28 88 3 0 18 -45 32 -99z"/>
<path d="M3820 1335 l0 -255 108 0 c226 0 294 59 296 256 1 82 -2 97 -29 149
-23 46 -40 64 -74 82 -40 21 -57 23 -173 23 l-128 0 0 -255z m239 159 c34 -24
51 -75 51 -153 0 -77 -21 -146 -51 -161 -10 -6 -43 -10 -73 -10 l-56 0 0 170
0 170 53 0 c32 0 61 -6 76 -16z"/>
<path d="M4322 1338 l3 -253 53 -3 52 -3 0 95 0 96 34 0 c44 0 58 -14 86 -92
36 -98 61 -115 125 -86 26 12 32 23 16 32 -5 4 -21 38 -36 76 -15 39 -37 77
-48 86 -18 13 -19 17 -7 22 28 10 69 63 76 98 13 72 -19 139 -80 168 -26 12
-64 16 -155 16 l-121 0 2 -252z m221 155 c8 -10 16 -27 17 -38 8 -72 -12 -95
-81 -95 l-49 0 0 75 0 75 48 0 c34 0 54 -5 65 -17z"/>
<path d="M4782 1338 l3 -253 55 0 55 0 3 253 2 252 -60 0 -60 0 2 -252z"/>
<path d="M6219 656 c-43 -25 -63 -65 -63 -126 0 -89 48 -140 134 -140 32 0 48
7 78 34 36 34 37 36 37 105 0 66 -2 73 -32 102 -37 38 -110 49 -154 25z m100
-17 c38 -14 61 -54 61 -109 0 -82 -55 -133 -122 -114 -94 27 -99 199 -7 225
35 10 33 10 68 -2z"/>
<path d="M3304 633 c4 -16 19 -75 34 -133 33 -130 50 -140 76 -48 40 144 48
170 56 161 4 -4 20 -56 36 -115 39 -148 49 -145 95 27 32 120 34 135 19 135
-14 0 -22 -22 -41 -110 -13 -60 -26 -110 -29 -110 -3 0 -19 50 -35 110 -26 95
-33 110 -49 108 -15 -2 -25 -24 -47 -102 -16 -54 -30 -104 -32 -110 -6 -15
-12 3 -38 117 -15 68 -26 97 -36 97 -11 0 -13 -7 -9 -27z"/>
<path d="M3750 525 l0 -135 100 0 c82 0 100 3 100 15 0 12 -16 15 -85 15 l-85
0 0 50 0 50 75 0 c60 0 75 3 75 15 0 12 -15 15 -75 15 l-75 0 0 45 0 45 85 0
c50 0 85 4 85 10 0 6 -40 10 -100 10 l-100 0 0 -135z"/>
<path d="M4070 525 l0 -135 53 0 c60 0 120 15 135 33 6 7 13 24 17 39 5 21 1
33 -20 54 -24 24 -25 28 -11 43 21 24 20 64 -2 84 -14 13 -38 17 -95 17 l-77
0 0 -135z m148 106 c8 -5 12 -22 10 -42 l-3 -34 -62 -3 -63 -3 0 46 0 45 53 0
c28 0 58 -4 65 -9z m22 -130 c28 -53 -1 -81 -81 -81 l-59 0 0 50 0 50 65 0
c53 0 66 -3 75 -19z"/>
<path d="M4570 525 l0 -135 53 1 c74 0 117 18 145 59 20 30 23 44 20 94 -4 51
-9 63 -36 87 -29 26 -39 29 -107 29 l-75 0 0 -135z m145 109 c58 -23 58 -185
0 -208 -9 -3 -39 -6 -66 -6 l-49 0 0 110 0 110 49 0 c27 0 57 -3 66 -6z"/>
<path d="M4920 525 l0 -135 100 0 c82 0 100 3 100 15 0 12 -16 15 -85 15 l-85
0 0 50 0 50 75 0 c60 0 75 3 75 15 0 12 -15 15 -75 15 l-75 0 0 45 0 45 80 0
c47 0 80 4 80 10 0 6 -38 10 -95 10 l-95 0 0 -135z"/>
<path d="M5259 553 c58 -159 59 -163 75 -163 9 0 31 46 60 126 50 138 52 144
33 144 -7 0 -28 -48 -51 -116 -21 -63 -41 -113 -44 -109 -4 3 -23 54 -43 113
-24 73 -41 108 -52 110 -14 3 -10 -15 22 -105z"/>
<path d="M5560 525 l0 -135 100 0 c82 0 100 3 100 15 0 12 -16 15 -85 15 l-85
0 0 50 0 50 80 0 c64 0 80 3 80 15 0 12 -16 15 -80 15 l-80 0 0 45 0 45 85 0
c50 0 85 4 85 10 0 6 -40 10 -100 10 l-100 0 0 -135z"/>
<path d="M5880 525 l0 -135 90 0 c73 0 90 3 90 15 0 12 -15 15 -75 15 l-75 0
0 120 c0 100 -2 120 -15 120 -13 0 -15 -22 -15 -135z"/>
<path d="M6540 525 c0 -113 2 -135 15 -135 12 0 15 13 15 60 l0 60 54 0 c69 0
109 29 109 78 0 56 -25 72 -115 72 l-78 0 0 -135z m156 86 c7 -14 9 -33 5 -45
-7 -18 -18 -21 -70 -24 l-61 -3 0 51 0 51 57 -3 c49 -3 59 -7 69 -27z"/>
<path d="M6860 525 l0 -135 100 0 c82 0 100 3 100 15 0 12 -16 15 -85 15 l-85
0 0 50 0 50 75 0 c60 0 75 3 75 15 0 12 -15 15 -75 15 l-75 0 0 45 0 45 85 0
c50 0 85 4 85 10 0 6 -40 10 -100 10 l-100 0 0 -135z"/>
<path d="M7180 525 c0 -113 2 -135 15 -135 12 0 15 13 15 60 l0 61 73 -3 c69
-3 72 -4 75 -28 7 -65 14 -90 26 -90 17 0 9 99 -10 119 -11 13 -11 17 0 30 27
30 29 65 6 94 -20 26 -26 27 -111 27 l-89 0 0 -135z m169 106 c8 -5 14 -24 14
-41 0 -41 -15 -50 -90 -50 l-63 0 0 50 0 50 63 0 c34 0 68 -4 76 -9z"/>
<path d="M85 563 c12 -53 52 -100 106 -127 l53 -26 786 0 c562 0 797 3 821 11
56 19 100 59 125 113 l24 51 -366 3 -366 2 -20 -25 -19 -25 -190 0 c-189 0
-190 0 -215 25 l-25 25 -361 0 -360 0 7 -27z"/>
</g>
</svg>
